<?xml version="1.0" standalone="no"?>
<!DOCTYPE svg PUBLIC "-//W3C//DTD SVG 20010904//EN"
 "http://www.w3.org/TR/2001/REC-SVG-20010904/DTD/svg10.dtd">
<svg version="1.0" xmlns="http://www.w3.org/2000/svg"
 width="1200.000000pt" height="1200.000000pt" viewBox="0 0 1200.000000 1200.000000"
 preserveAspectRatio="xMidYMid meet">
<metadata>
Created by potrace 1.14, written by Peter Selinger 2001-2017
</metadata>
<g transform="translate(0.000000,1200.000000) scale(0.100000,-0.100000)"
fill="#000000" stroke="none">
<path d="M7608 11994 c-2 -2 -22 -6 -44 -10 -21 -3 -46 -10 -55 -15 -9 -4 -19
-6 -22 -3 -5 6 -131 -55 -197 -95 -19 -11 -46 -26 -60 -33 -14 -7 -49 -27 -78
-45 -29 -18 -56 -33 -61 -33 -5 0 -14 -7 -21 -15 -7 -8 -16 -12 -21 -9 -5 3
-9 1 -9 -4 0 -5 -8 -12 -17 -16 -10 -3 -25 -10 -33 -16 -25 -17 -221 -130
-226 -130 -2 0 -36 -20 -76 -45 -40 -25 -78 -45 -84 -45 -7 0 -14 -4 -16 -8
-1 -5 -15 -15 -30 -23 -56 -29 -183 -103 -188 -108 -3 -3 -23 -16 -45 -28 -22
-11 -56 -30 -75 -41 -19 -12 -73 -43 -119 -69 -144 -82 -187 -106 -270 -155
-44 -27 -85 -48 -91 -48 -5 0 -10 -3 -10 -7 0 -5 -18 -17 -40 -27 -22 -11 -40
-23 -40 -28 0 -4 -3 -7 -7 -6 -5 2 -46 -20 -93 -47 -47 -28 -95 -54 -107 -58
-13 -5 -23 -13 -23 -18 0 -5 -4 -9 -8 -9 -7 0 -140 -75 -417 -236 -22 -13 -49
-28 -60 -34 -11 -5 -38 -21 -60 -35 -22 -14 -51 -31 -65 -38 -54 -27 -140 -79
-146 -88 -3 -5 -14 -9 -25 -9 -10 0 -19 -4 -19 -8 0 -5 -18 -17 -40 -27 -22
-10 -40 -22 -40 -27 0 -4 -4 -8 -10 -8 -13 0 -314 -172 -318 -182 -2 -5 -12
-8 -23 -8 -10 0 -19 -4 -19 -10 0 -5 -5 -10 -11 -10 -6 0 -23 -8 -37 -19 -28
-19 -131 -77 -169 -95 -13 -6 -23 -14 -23 -18 0 -5 -4 -8 -9 -8 -5 0 -49 -23
-98 -52 -48 -28 -99 -57 -113 -65 -14 -8 -46 -26 -71 -41 -25 -15 -126 -73
-225 -130 -98 -57 -186 -108 -194 -113 -17 -10 -225 -130 -280 -161 -204 -116
-384 -228 -437 -273 -7 -5 -27 -21 -44 -35 -114 -89 -251 -227 -354 -357 -11
-13 -30 -36 -42 -50 -12 -14 -25 -34 -28 -44 -4 -11 -10 -19 -13 -19 -4 0 -18
-20 -32 -45 -14 -25 -28 -45 -32 -45 -5 0 -8 -6 -8 -14 0 -8 -3 -16 -7 -18 -5
-1 -17 -21 -28 -43 -11 -22 -32 -62 -47 -88 -16 -26 -28 -54 -28 -60 0 -7 -5
-18 -12 -25 -10 -10 -31 -58 -45 -107 -4 -11 -9 -22 -12 -25 -6 -5 -62 -172
-63 -187 0 -5 -4 -18 -9 -31 -8 -21 -16 -51 -24 -97 -2 -11 -6 -31 -10 -45 -3
-14 -8 -38 -10 -55 -13 -73 -16 -92 -22 -130 -11 -72 -15 -2212 -4 -2268 16
-83 18 -89 41 -147 23 -59 73 -145 101 -172 10 -10 23 -25 31 -35 19 -26 109
-103 133 -115 11 -5 29 -14 40 -21 90 -55 148 -87 156 -87 5 0 9 -4 9 -9 0 -5
9 -13 20 -16 11 -4 49 -24 85 -46 36 -21 69 -39 75 -39 5 0 10 -4 10 -10 0 -5
6 -10 13 -10 6 -1 48 -23 92 -50 44 -27 107 -63 140 -81 33 -17 67 -37 75 -44
8 -6 22 -15 30 -18 8 -4 38 -20 65 -37 28 -16 61 -35 75 -42 14 -7 43 -24 65
-38 22 -15 56 -34 75 -43 38 -19 72 -39 80 -47 3 -3 23 -14 45 -25 22 -11 42
-23 45 -26 3 -3 17 -12 31 -20 32 -17 188 -106 209 -119 43 -28 198 -113 220
-122 93 -36 227 20 276 114 15 28 27 112 24 158 -1 14 -1 31 -1 38 2 22 1 36
-2 67 -1 17 1 38 6 47 4 10 4 18 0 18 -10 0 -9 183 1 198 3 6 3 13 -2 16 -8 5
-7 69 2 93 3 7 2 14 -2 17 -9 5 -7 180 2 194 3 6 3 13 -2 16 -8 5 -7 69 2 93
3 7 2 13 -2 13 -9 0 -7 183 2 198 3 6 3 13 -2 16 -8 5 -7 69 2 93 3 7 2 14 -2
17 -8 5 -7 179 1 193 4 6 4 13 0 17 -4 3 -6 39 -4 79 2 83 2 72 -1 160 -2 37
0 67 3 67 3 0 5 10 3 23 -1 12 -3 22 -4 22 -1 0 -3 12 -4 28 -1 15 2 27 7 27
6 0 6 5 1 13 -8 10 -11 97 -5 117 1 3 4 48 6 100 2 52 6 109 9 125 6 41 18
126 22 150 1 11 3 20 4 20 1 0 3 8 5 19 10 50 29 126 42 166 8 25 16 50 17 55
16 78 147 384 169 393 4 2 7 8 7 14 0 24 190 308 211 316 5 2 9 8 9 12 0 24
186 212 330 334 51 43 139 106 149 106 5 0 11 3 13 8 4 10 85 62 97 62 5 0 11
4 13 8 2 4 50 34 108 67 58 33 114 65 125 72 11 7 27 15 35 20 8 4 55 31 104
60 49 29 90 53 91 53 2 0 76 43 165 95 89 52 164 95 165 95 2 0 49 27 105 60
56 33 106 60 111 60 5 0 9 5 9 10 0 6 6 10 14 10 7 0 19 7 26 15 7 9 15 13 18
10 3 -3 12 1 21 9 9 8 41 26 71 42 30 15 57 31 60 34 5 6 211 126 250 145 11
5 20 13 20 18 0 4 4 6 9 2 5 -3 16 0 23 7 14 13 30 23 96 59 20 11 51 29 67
39 17 10 52 31 79 45 81 44 91 50 96 55 3 3 52 33 110 65 58 33 119 68 135 77
17 10 52 30 79 45 27 16 56 33 65 38 9 6 64 37 121 70 58 33 107 63 108 67 2
4 8 8 13 8 5 0 109 58 232 129 122 71 239 138 259 149 20 12 54 32 75 45 21
13 45 26 53 30 8 4 33 18 55 32 22 14 47 28 55 32 8 3 47 26 87 50 39 24 76
43 82 43 6 0 11 5 11 10 0 6 6 10 13 10 6 0 40 18 75 40 34 22 67 40 72 40 6
0 10 5 10 10 0 6 7 10 15 10 9 0 28 9 43 19 31 22 275 165 282 166 3 0 16 8
30 16 69 44 273 159 281 159 5 0 9 5 9 10 0 6 5 10 11 10 8 0 100 51 179 100
94 58 280 153 280 143 0 -3 6 -1 13 5 6 6 15 11 20 11 4 1 8 1 10 2 111 34
299 35 405 3 7 -2 14 -3 17 -4 3 0 19 -7 35 -15 17 -9 30 -12 30 -7 0 5 -15
16 -32 25 -18 9 -53 29 -78 43 -25 15 -65 38 -90 52 -25 13 -65 37 -90 52 -88
53 -195 115 -220 127 -14 7 -32 17 -40 23 -26 17 -143 85 -200 117 -30 17
-111 63 -180 103 -69 40 -150 86 -180 103 -30 17 -57 33 -60 36 -3 3 -23 16
-45 27 -22 12 -82 46 -132 75 -174 101 -188 109 -205 115 -10 4 -18 10 -18 14
0 4 -8 10 -17 13 -10 3 -40 19 -68 35 -27 16 -101 59 -163 95 -62 36 -119 71
-127 77 -8 7 -15 9 -15 5 0 -5 -8 -1 -17 7 -10 8 -43 28 -73 44 -30 16 -57 32
-60 35 -11 14 -187 99 -210 101 -3 0 -16 5 -30 10 -14 5 -38 12 -55 15 -39 6
-242 13 -247 7z"/>
<path d="M9870 10282 c-39 -15 -114 -53 -160 -82 -45 -27 -170 -100 -174 -100
-2 0 -34 -18 -70 -40 -36 -22 -70 -40 -76 -40 -5 0 -10 -4 -10 -10 0 -5 -6
-10 -14 -10 -8 0 -21 -6 -28 -13 -7 -6 -31 -21 -53 -32 -22 -11 -42 -22 -45
-25 -10 -10 -153 -90 -161 -90 -5 0 -9 -4 -9 -10 0 -5 -3 -9 -7 -8 -5 1 -19
-4 -33 -13 -81 -50 -132 -79 -140 -79 -5 0 -15 -6 -22 -12 -13 -13 -26 -20
-92 -57 -17 -10 -51 -29 -76 -43 -25 -14 -85 -49 -135 -79 -49 -29 -112 -65
-140 -79 -27 -14 -57 -31 -65 -39 -8 -8 -28 -20 -45 -28 -16 -7 -39 -19 -50
-26 -88 -55 -127 -77 -135 -77 -6 0 -10 -4 -10 -9 0 -5 -12 -12 -27 -16 l-27
-6 30 -24 c16 -13 34 -24 40 -25 6 0 23 -9 38 -21 14 -11 26 -17 26 -13 0 4 8
0 18 -8 15 -13 177 -109 222 -131 8 -4 33 -19 55 -33 22 -14 52 -30 68 -37 15
-6 27 -15 27 -19 0 -4 5 -8 10 -8 6 0 34 -15 63 -33 29 -18 68 -41 87 -51 19
-9 44 -23 55 -29 11 -7 52 -31 90 -53 39 -23 90 -54 115 -68 25 -15 53 -29 63
-33 9 -3 17 -9 17 -14 0 -5 4 -9 9 -9 5 0 48 -22 96 -50 48 -27 91 -50 96 -50
5 0 9 -4 9 -10 0 -5 4 -10 10 -10 5 0 44 -20 86 -45 41 -25 80 -45 85 -45 5 0
9 -4 9 -10 0 -5 4 -10 9 -10 5 0 44 -20 85 -45 42 -25 81 -45 85 -45 5 0 11
-3 13 -7 3 -8 39 -30 98 -60 19 -10 37 -20 40 -23 3 -3 16 -11 29 -18 13 -8
40 -23 60 -35 110 -63 145 -77 198 -77 90 0 165 47 209 131 8 16 12 29 8 29
-4 0 -2 6 3 13 9 12 10 1684 1 1737 -16 89 -95 190 -190 240 -54 29 -74 34
-143 36 -56 2 -93 -2 -125 -14z"/>
<path d="M8230 7778 c-56 -16 -115 -67 -140 -121 l-22 -49 -3 -947 c-2 -520
-6 -964 -9 -986 -4 -22 -9 -56 -11 -75 -2 -19 -4 -35 -5 -35 -2 0 -5 -14 -13
-60 -13 -68 -19 -90 -52 -189 -18 -57 -49 -137 -68 -178 -18 -40 -35 -77 -37
-83 -2 -5 -19 -36 -37 -67 -18 -31 -33 -61 -33 -67 0 -6 -4 -11 -8 -11 -4 0
-21 -22 -37 -50 -16 -27 -33 -50 -37 -50 -4 0 -8 -6 -8 -14 0 -8 -3 -16 -7
-18 -5 -1 -34 -34 -65 -73 -69 -86 -191 -204 -278 -271 -36 -27 -67 -51 -70
-54 -10 -10 -136 -88 -235 -145 -55 -32 -143 -83 -195 -113 -52 -30 -108 -62
-125 -70 -16 -9 -32 -18 -35 -21 -8 -9 -82 -51 -112 -64 -16 -6 -28 -15 -28
-19 0 -4 -5 -8 -10 -8 -6 0 -29 -12 -51 -26 -36 -22 -85 -50 -154 -88 -11 -6
-27 -16 -35 -22 -8 -6 -40 -25 -70 -41 -30 -17 -111 -63 -180 -103 -69 -40
-141 -82 -160 -92 -19 -11 -51 -29 -72 -41 -20 -12 -71 -42 -115 -67 -43 -24
-86 -49 -95 -55 -9 -5 -29 -17 -45 -26 -15 -8 -83 -48 -151 -87 -68 -40 -127
-72 -132 -72 -6 0 -10 -4 -10 -10 0 -5 -4 -10 -8 -10 -5 0 -102 -54 -217 -120
-115 -66 -212 -120 -217 -120 -4 0 -8 -3 -8 -7 0 -5 -10 -13 -23 -19 -36 -17
-112 -59 -117 -65 -3 -3 -57 -34 -120 -69 -63 -35 -116 -68 -118 -72 -2 -4 -8
-8 -13 -8 -4 0 -43 -21 -86 -46 -43 -25 -88 -50 -100 -55 -29 -11 -29 -18 3
-98 51 -126 51 -124 51 -1059 1 -784 3 -882 17 -922 27 -72 63 -126 111 -165
113 -93 257 -109 393 -45 39 19 72 38 72 42 0 4 5 8 10 8 6 0 39 17 74 39 35
21 77 44 95 52 17 8 31 17 31 21 0 5 4 8 9 8 5 0 39 18 75 40 36 22 70 40 75
40 5 0 14 7 21 15 7 8 16 13 20 10 5 -3 10 -1 12 3 1 5 23 20 48 34 103 57
127 71 160 91 19 12 38 25 41 30 3 5 8 8 10 6 3 -2 122 62 169 91 39 24 222
131 285 165 39 22 72 43 73 47 2 4 8 8 14 8 6 0 37 16 69 36 32 19 61 34 64
34 3 -1 21 10 40 24 18 14 36 26 39 26 3 0 40 20 82 45 41 25 78 45 81 45 4 0
21 11 39 25 18 14 39 25 47 25 9 0 17 3 19 8 3 8 21 18 143 88 44 24 87 49 95
54 54 34 168 100 173 100 3 0 42 23 87 50 45 28 83 50 85 50 3 0 162 92 205
118 14 9 25 14 25 11 0 -2 7 2 15 9 15 13 240 144 295 172 17 8 36 21 43 27 7
7 20 13 28 13 8 0 14 4 14 9 0 5 8 11 18 14 9 4 40 20 67 37 28 17 57 33 65
37 8 3 23 13 33 21 9 8 17 11 17 6 0 -5 4 -4 8 2 4 6 43 30 87 54 44 24 86 50
93 57 7 7 17 13 22 13 5 0 43 20 83 45 41 25 79 45 85 45 6 0 12 4 14 8 2 4
35 25 73 46 39 22 78 46 88 54 9 8 17 11 17 7 0 -4 8 -1 18 7 9 8 37 26 62 39
25 13 52 29 60 35 8 6 40 25 70 41 30 16 74 42 97 56 24 15 45 27 47 27 6 0
129 73 136 80 3 3 24 14 47 25 24 11 43 23 43 28 0 4 4 7 10 7 5 0 31 13 58
29 26 15 68 39 93 53 40 23 136 81 183 111 120 75 347 281 421 382 17 22 33
42 36 45 12 11 129 190 129 198 0 5 8 20 18 33 24 31 103 214 132 304 12 39
25 77 28 85 3 8 6 18 7 23 2 4 3 8 5 10 1 1 3 13 5 27 1 14 10 61 19 105 10
44 20 107 23 140 8 96 9 1925 1 1980 -16 103 -56 202 -116 285 -35 50 -152
160 -168 160 -8 0 -14 5 -14 10 0 6 -4 10 -9 10 -8 0 -152 80 -161 90 -3 3
-16 11 -30 18 -14 7 -38 20 -55 30 -35 22 -105 61 -155 88 -19 11 -37 22 -40
25 -3 3 -31 20 -64 38 -32 17 -111 62 -175 100 -64 37 -161 94 -216 125 -55
31 -107 61 -115 66 -97 59 -203 119 -228 129 -18 8 -32 17 -32 21 0 3 -22 17
-50 30 -27 13 -50 27 -50 32 0 4 -4 8 -9 8 -5 0 -65 32 -133 71 -67 39 -131
71 -140 72 -10 1 -18 4 -18 7 0 10 -83 9 -120 -2z"/>
<path d="M1818 3560 c-75 -22 -139 -87 -158 -161 -8 -31 -10 -279 -8 -809 4
-808 3 -794 49 -905 7 -16 13 -32 14 -35 10 -40 98 -166 155 -221 76 -74 91
-84 328 -220 17 -11 49 -29 70 -40 20 -12 74 -43 120 -70 45 -27 85 -49 89
-49 4 0 14 -6 22 -14 9 -7 48 -30 86 -51 39 -21 82 -46 97 -56 14 -11 31 -19
37 -19 6 0 11 -5 11 -11 0 -5 5 -7 10 -4 6 3 10 1 10 -4 0 -6 4 -11 9 -11 12
0 274 -151 282 -163 3 -5 10 -9 15 -9 10 0 77 -37 136 -74 21 -13 40 -24 43
-24 4 0 25 -13 48 -28 23 -15 63 -38 90 -51 26 -13 47 -28 47 -33 0 -4 6 -8
14 -8 8 0 51 -22 95 -50 44 -27 85 -50 91 -50 5 0 10 -4 10 -8 0 -4 12 -13 28
-19 15 -7 50 -25 77 -41 193 -113 418 -242 422 -242 2 0 21 -12 41 -27 20 -15
5 5 -34 43 -40 38 -85 87 -101 109 -45 61 -108 190 -118 243 -2 13 -6 31 -9
40 -15 48 -24 199 -14 229 4 12 4 24 0 27 -4 2 -6 30 -4 63 3 68 3 59 0 146
-2 37 0 67 3 67 5 0 4 36 -1 50 -6 15 -4 108 2 127 4 12 4 24 0 27 -4 2 -6 30
-4 63 3 68 3 59 0 146 -2 37 0 67 3 67 3 0 5 10 3 23 -1 12 -3 22 -4 22 -1 0
-3 12 -4 28 -1 15 2 27 7 27 4 0 5 5 1 12 -9 15 -11 128 -3 128 4 0 3 15 -1
34 -4 19 -4 40 1 47 4 7 5 17 2 22 -8 14 -9 137 -1 137 3 0 5 8 3 18 -2 9 -4
17 -5 17 -1 0 -3 32 -4 70 -2 39 -10 95 -19 125 -9 30 -17 60 -18 65 0 6 -6
19 -12 30 -6 11 -11 22 -12 25 0 6 -43 77 -60 99 -37 50 -140 144 -195 177
-101 61 -122 73 -167 96 -24 12 -43 26 -43 30 0 4 -5 8 -11 8 -6 0 -52 24
-102 54 -95 55 -140 81 -217 124 -25 13 -52 30 -60 36 -8 7 -26 17 -40 24 -14
7 -34 17 -45 24 -39 24 -111 66 -145 86 -19 10 -154 88 -300 172 -146 84 -285
164 -310 178 -25 14 -61 35 -80 47 -111 70 -195 94 -262 75z"/>
</g>
</svg>
